{
    "asset": {
        "version": "2.0",
        "generator": "Open Asset Import Library (assimp v3.1.206520482)"
    },
    "accessors": [
        {
            "bufferView": 0,
            "byteOffset": 0,
            "componentType": 5126,
            "count": 53424,
            "type": "VEC3",
            "max": [
                0.3997105360031128,
                0.18621554970741273,
                1.0
            ],
            "min": [
                -0.3997105360031128,
                -0.2271381914615631,
                -1.0
            ]
        },
        {
            "bufferView": 1,
            "byteOffset": 0,
            "componentType": 5126,
            "count": 53424,
            "type": "VEC3",
            "max": [
                1.0,
                0.9999996423721314,
                0.9990248084068298
            ],
            "min": [
                -1.0,
                -1.0,
                -0.999678373336792
            ]
        },
        {
            "bufferView": 2,
            "byteOffset": 0,
            "componentType": 5126,
            "count": 53424,
            "type": "VEC2",
            "max": [
                0.9980080127716065,
                0.9980667233467102
            ],
            "min": [
                0.0019920319318771364,
                0.03143155574798584
            ]
        },
        {
            "bufferView": 3,
            "byteOffset": 0,
            "componentType": 5123,
            "count": 53424,
            "type": "SCALAR",
            "max": [
                53423.0
            ],
            "min": [
                0.0
            ]
        },
        {
            "bufferView": 4,
            "byteOffset": 0,
            "componentType": 5126,
            "count": 7488,
            "type": "VEC3",
            "max": [
                0.34163957834243777,
                0.2271381914615631,
                0.9861508011817932
            ],
            "min": [
                -0.34163957834243777,
                -0.13897378742694856,
                -0.967668890953064
            ]
        },
        {
            "bufferView": 5,
            "byteOffset": 0,
            "componentType": 5126,
            "count": 7488,
            "type": "VEC3",
            "max": [
                0.9999653697013855,
                0.9999893307685852,
                0.9998026490211487
            ],
            "min": [
                -0.9999653697013855,
                -0.9998370409011841,
                -0.7210642099380493
            ]
        },
        {
            "bufferView": 6,
            "byteOffset": 0,
            "componentType": 5126,
            "count": 7488,
            "type": "VEC2",
            "max": [
                0.9068830013275147,
                0.9928309321403503
            ],
            "min": [
                0.001992073841392994,
                0.08704590797424317
            ]
        },
        {
            "bufferView": 7,
            "byteOffset": 0,
            "componentType": 5123,
            "count": 7488,
            "type": "SCALAR",
            "max": [
                7487.0
            ],
            "min": [
                0.0
            ]
        },
        {
            "bufferView": 8,
            "byteOffset": 0,
            "componentType": 5126,
            "count": 3648,
            "type": "VEC3",
            "max": [
                0.2463737577199936,
                0.22469139099121095,
                0.1453491449356079
            ],
            "min": [
                -0.2463737577199936,
                0.05689244344830513,
                -0.5126942992210388
            ]
        },
        {
            "bufferView": 9,
            "byteOffset": 0,
            "componentType": 5126,
            "count": 3648,
            "type": "VEC3",
            "max": [
                0.9011094570159912,
                0.994593620300293,
                0.6206629276275635
            ],
            "min": [
                -0.9011092782020569,
                0.43274620175361636,
                -0.7044910192489624
            ]
        },
        {
            "bufferView": 10,
            "byteOffset": 0,
            "componentType": 5126,
            "count": 3648,
            "type": "VEC2",
            "max": [
                0.47363489866256716,
                0.8205142021179199
            ],
            "min": [
                0.10371740907430649,
                0.18827807903289796
            ]
        },
        {
            "bufferView": 11,
            "byteOffset": 0,
            "componentType": 5123,
            "count": 3648,
            "type": "SCALAR",
            "max": [
                3647.0
            ],
            "min": [
                0.0
            ]
        },
        {
            "bufferView": 12,
            "byteOffset": 0,
            "componentType": 5126,
            "count": 1152,
            "type": "VEC3",
            "max": [
                0.11462277919054032,
                0.1901242583990097,
                -0.5194737315177918
            ],
            "min": [
                -0.11462277919054032,
                0.12053430080413819,
                -0.9026201367378235
            ]
        },
        {
            "bufferView": 13,
            "byteOffset": 0,
            "componentType": 5126,
            "count": 1152,
            "type": "VEC3",
            "max": [
                0.9394826889038086,
                0.9994620084762573,
                0.6724249720573425
            ],
            "min": [
                -0.9394826889038086,
                -0.9994903206825256,
                -0.9447490572929382
            ]
        },
        {
            "bufferView": 14,
            "byteOffset": 0,
            "componentType": 5126,
            "count": 1152,
            "type": "VEC2",
            "max": [
                0.6359727382659912,
                0.41001540422439577
            ],
            "min": [
                0.17707984149456025,
                0.10420483350753784
            ]
        },
        {
            "bufferView": 15,
            "byteOffset": 0,
            "componentType": 5123,
            "count": 1152,
            "type": "SCALAR",
            "max": [
                1151.0
            ],
            "min": [
                0.0
            ]
        },
        {
            "bufferView": 16,
            "byteOffset": 0,
            "componentType": 5126,
            "count": 6288,
            "type": "VEC3",
            "max": [
                0.3834635615348816,
                0.09407688677310944,
                0.6821950078010559
            ],
            "min": [
                -0.3834635615348816,
                -0.09330274909734726,
                -0.8346971869468689
            ]
        },
        {
            "bufferView": 17,
            "byteOffset": 0,
            "componentType": 5126,
            "count": 6288,
            "type": "VEC3",
            "max": [
                0.9998507499694824,
                0.8410613536834717,
                0.45707210898399355
            ],
            "min": [
                -0.9999590516090393,
                -0.7227849960327148,
                -0.9998167157173157
            ]
        },
        {
            "bufferView": 18,
            "byteOffset": 0,
            "componentType": 5126,
            "count": 6288,
            "type": "VEC2",
            "max": [
                0.6503170728683472,
                0.8855346441268921
            ],
            "min": [
                0.048779457807540897,
                0.05143648386001587
            ]
        },
        {
            "bufferView": 19,
            "byteOffset": 0,
            "componentType": 5123,
            "count": 6288,
            "type": "SCALAR",
            "max": [
                6287.0
            ],
            "min": [
                0.0
            ]
        },
        {
            "bufferView": 20,
            "byteOffset": 0,
            "componentType": 5126,
            "count": 8448,
            "type": "VEC3",
            "max": [
                0.405007004737854,
                0.10555610060691834,
                0.7030958533287048
            ],
            "min": [
                -0.405007004737854,
                -0.15518872439861298,
                -0.8631657361984253
            ]
        },
        {
            "bufferView": 21,
            "byteOffset": 0,
            "componentType": 5126,
            "count": 8448,
            "type": "VEC3",
            "max": [
                0.9999358654022217,
                0.9797699451446533,
                0.4864168167114258
            ],
            "min": [
                -0.9999358057975769,
                -0.9928335547447205,
                -0.9998350739479065
            ]
        },
        {
            "bufferView": 22,
            "byteOffset": 0,
            "componentType": 5126,
            "count": 8448,
            "type": "VEC2",
            "max": [
                0.9980080127716065,
                0.9980667233467102
            ],
            "min": [
                0.04689016193151474,
                0.031770527362823489
            ]
        },
        {
            "bufferView": 23,
            "byteOffset": 0,
            "componentType": 5123,
            "count": 8448,
            "type": "SCALAR",
            "max": [
                8447.0
            ],
            "min": [
                0.0
            ]
        },
        {
            "bufferView": 24,
            "byteOffset": 0,
            "componentType": 5126,
            "count": 960,
            "type": "VEC3",
            "max": [
                0.3394879400730133,
                0.18621554970741273,
                -0.8227869272232056
            ],
            "min": [
                -0.3394879400730133,
                0.10580205172300339,
                -1.0
            ]
        },
        {
            "bufferView": 25,
            "byteOffset": 0,
            "componentType": 5126,
            "count": 960,
            "type": "VEC3",
            "max": [
                0.8731119632720947,
                0.9977512359619141,
                0.25496023893356326
            ],
            "min": [
                -0.8731147050857544,
                -0.9460393190383911,
                -0.9506338238716126
            ]
        },
        {
            "bufferView": 26,
            "byteOffset": 0,
            "componentType": 5126,
            "count": 960,
            "type": "VEC2",
            "max": [
                0.8812593817710877,
                0.9980667233467102
            ],
            "min": [
                0.06845131516456604,
                0.11210942268371582
            ]
        },
        {
            "bufferView": 27,
            "byteOffset": 0,
            "componentType": 5123,
            "count": 960,
            "type": "SCALAR",
            "max": [
                959.0
            ],
            "min": [
                0.0
            ]
        }
    ],
    "buffers": [
        {
            "byteLength": 2767872,
            "uri": "/Users/kaifas/dev/webgl_final/models/models.bin"
        }
    ],
    "bufferViews": [
        {
            "buffer": 0,
            "byteOffset": 0,
            "byteLength": 641088,
            "target": 34962
        },
        {
            "buffer": 0,
            "byteOffset": 641088,
            "byteLength": 641088,
            "target": 34962
        },
        {
            "buffer": 0,
            "byteOffset": 1282176,
            "byteLength": 427392,
            "target": 34962
        },
        {
            "buffer": 0,
            "byteOffset": 1709568,
            "byteLength": 106848,
            "target": 34963
        },
        {
            "buffer": 0,
            "byteOffset": 1816416,
            "byteLength": 89856,
            "target": 34962
        },
        {
            "buffer": 0,
            "byteOffset": 1906272,
            "byteLength": 89856,
            "target": 34962
        },
        {
            "buffer": 0,
            "byteOffset": 1996128,
            "byteLength": 59904,
            "target": 34962
        },
        {
            "buffer": 0,
            "byteOffset": 2056032,
            "byteLength": 14976,
            "target": 34963
        },
        {
            "buffer": 0,
            "byteOffset": 2071008,
            "byteLength": 43776,
            "target": 34962
        },
        {
            "buffer": 0,
            "byteOffset": 2114784,
            "byteLength": 43776,
            "target": 34962
        },
        {
            "buffer": 0,
            "byteOffset": 2158560,
            "byteLength": 29184,
            "target": 34962
        },
        {
            "buffer": 0,
            "byteOffset": 2187744,
            "byteLength": 7296,
            "target": 34963
        },
        {
            "buffer": 0,
            "byteOffset": 2195040,
            "byteLength": 13824,
            "target": 34962
        },
        {
            "buffer": 0,
            "byteOffset": 2208864,
            "byteLength": 13824,
            "target": 34962
        },
        {
            "buffer": 0,
            "byteOffset": 2222688,
            "byteLength": 9216,
            "target": 34962
        },
        {
            "buffer": 0,
            "byteOffset": 2231904,
            "byteLength": 2304,
            "target": 34963
        },
        {
            "buffer": 0,
            "byteOffset": 2234208,
            "byteLength": 75456,
            "target": 34962
        },
        {
            "buffer": 0,
            "byteOffset": 2309664,
            "byteLength": 75456,
            "target": 34962
        },
        {
            "buffer": 0,
            "byteOffset": 2385120,
            "byteLength": 50304,
            "target": 34962
        },
        {
            "buffer": 0,
            "byteOffset": 2435424,
            "byteLength": 12576,
            "target": 34963
        },
        {
            "buffer": 0,
            "byteOffset": 2448000,
            "byteLength": 101376,
            "target": 34962
        },
        {
            "buffer": 0,
            "byteOffset": 2549376,
            "byteLength": 101376,
            "target": 34962
        },
        {
            "buffer": 0,
            "byteOffset": 2650752,
            "byteLength": 67584,
            "target": 34962
        },
        {
            "buffer": 0,
            "byteOffset": 2718336,
            "byteLength": 16896,
            "target": 34963
        },
        {
            "buffer": 0,
            "byteOffset": 2735232,
            "byteLength": 11520,
            "target": 34962
        },
        {
            "buffer": 0,
            "byteOffset": 2746752,
            "byteLength": 11520,
            "target": 34962
        },
        {
            "buffer": 0,
            "byteOffset": 2758272,
            "byteLength": 7680,
            "target": 34962
        },
        {
            "buffer": 0,
            "byteOffset": 2765952,
            "byteLength": 1920,
            "target": 34963
        }
    ],
    "materials": [
        {
            "name": "lambert1",
            "pbrMetallicRoughness": {
                "baseColorFactor": [
                    0.5,
                    0.5,
                    0.5,
                    1.0
                ],
                "metallicFactor": 0.0
            }
        },
        {
            "name": "standardSurface2",
            "pbrMetallicRoughness": {
                "baseColorFactor": [
                    0.5,
                    0.5,
                    0.5,
                    1.0
                ],
                "metallicFactor": 0.0
            }
        },
        {
            "name": "mat_visr",
            "pbrMetallicRoughness": {
                "baseColorFactor": [
                    0.5,
                    0.5,
                    0.5,
                    1.0
                ],
                "metallicFactor": 0.0
            }
        },
        {
            "name": "mat_back_plate",
            "pbrMetallicRoughness": {
                "baseColorFactor": [
                    0.5,
                    0.5,
                    0.5,
                    1.0
                ],
                "metallicFactor": 0.0
            }
        },
        {
            "name": "mat_inside_engine",
            "pbrMetallicRoughness": {
                "baseColorFactor": [
                    0.5,
                    0.5,
                    0.5,
                    1.0
                ],
                "metallicFactor": 0.0
            }
        },
        {
            "name": "mat_metal_rim",
            "pbrMetallicRoughness": {
                "baseColorFactor": [
                    0.5,
                    0.5,
                    0.5,
                    1.0
                ],
                "metallicFactor": 0.0
            }
        },
        {
            "name": "mat_back_glow",
            "pbrMetallicRoughness": {
                "baseColorFactor": [
                    0.5,
                    0.5,
                    0.5,
                    1.0
                ],
                "metallicFactor": 0.0
            }
        }
    ],
    "meshes": [
        {
            "name": "stromracer",
            "primitives": [
                {
                    "mode": 4,
                    "material": 0,
                    "indices": 3,
                    "attributes": {
                        "POSITION": 0,
                        "NORMAL": 1,
                        "TEXCOORD_0": 2
                    }
                }
            ]
        },
        {
            "name": "stromracer",
            "primitives": [
                {
                    "mode": 4,
                    "material": 1,
                    "indices": 7,
                    "attributes": {
                        "POSITION": 4,
                        "NORMAL": 5,
                        "TEXCOORD_0": 6
                    }
                }
            ]
        },
        {
            "name": "stromracer",
            "primitives": [
                {
                    "mode": 4,
                    "material": 2,
                    "indices": 11,
                    "attributes": {
                        "POSITION": 8,
                        "NORMAL": 9,
                        "TEXCOORD_0": 10
                    }
                }
            ]
        },
        {
            "name": "stromracer",
            "primitives": [
                {
                    "mode": 4,
                    "material": 3,
                    "indices": 15,
                    "attributes": {
                        "POSITION": 12,
                        "NORMAL": 13,
                        "TEXCOORD_0": 14
                    }
                }
            ]
        },
        {
            "name": "stromracer",
            "primitives": [
                {
                    "mode": 4,
                    "material": 4,
                    "indices": 19,
                    "attributes": {
                        "POSITION": 16,
                        "NORMAL": 17,
                        "TEXCOORD_0": 18
                    }
                }
            ]
        },
        {
            "name": "stromracer",
            "primitives": [
                {
                    "mode": 4,
                    "material": 5,
                    "indices": 23,
                    "attributes": {
                        "POSITION": 20,
                        "NORMAL": 21,
                        "TEXCOORD_0": 22
                    }
                }
            ]
        },
        {
            "name": "stromracer",
            "primitives": [
                {
                    "mode": 4,
                    "material": 6,
                    "indices": 27,
                    "attributes": {
                        "POSITION": 24,
                        "NORMAL": 25,
                        "TEXCOORD_0": 26
                    }
                }
            ]
        }
    ],
    "nodes": [
        {
            "matrix": [
                4.028536319732666,
                0.0,
                0.0,
                0.0,
                0.0,
                4.028536319732666,
                0.0,
                0.0,
                0.0,
                0.0,
                4.028536319732666,
                0.0,
                0.0,
                0.24156659841537476,
                -0.07874345779418946,
                1.0
            ],
            "children": [
                1,
                2,
                3,
                4,
                5,
                6,
                7
            ]
        },
        {
            "name": "stromracer",
            "mesh": 0
        },
        {
            "name": "stromracer_node",
            "mesh": 1
        },
        {
            "name": "stromracer_node_0",
            "mesh": 2
        },
        {
            "name": "stromracer_node_1",
            "mesh": 3
        },
        {
            "name": "stromracer_node_2",
            "mesh": 4
        },
        {
            "name": "stromracer_node_3",
            "mesh": 5
        },
        {
            "name": "stromracer_node_4",
            "mesh": 6
        }
    ],
    "scenes": [
        {
            "nodes": [
                0
            ]
        }
    ],
    "scene": 0
}