# This file uses centimeters as units for non-parametric coordinates.

v 9.568125 0.000000 -12.075156
v 9.395216 1.810780 -12.075156
v 8.882740 3.556113 -12.075156
v 8.049219 5.172919 -12.075156
v 6.924778 6.602762 -12.075156
v 5.550057 7.793964 -12.075156
v 3.974743 8.703472 -12.075156
v 2.255772 9.298414 -12.075156
v 0.455270 9.557287 -12.075156
v -1.361685 9.470736 -12.075156
v -3.129426 9.041886 -12.075156
v -4.784062 8.286240 -12.075156
v -6.265789 7.231107 -12.075156
v -7.521054 5.914623 -12.075156
v -8.504488 4.384369 -12.075156
v -9.180548 2.695653 -12.075156
v -9.524799 0.909509 -12.075156
v -9.524799 -0.909507 -12.075156
v -9.180549 -2.695651 -12.075156
v -8.504489 -4.384367 -12.075156
v -7.521054 -5.914621 -12.075156
v -6.265790 -7.231105 -12.075156
v -4.784063 -8.286239 -12.075156
v -3.129428 -9.041885 -12.075156
v -1.361687 -9.470735 -12.075156
v 0.455269 -9.557287 -12.075156
v 2.255770 -9.298415 -12.075156
v 3.974742 -8.703473 -12.075156
v 5.550056 -7.793965 -12.075156
v 6.924778 -6.602763 -12.075156
v 8.049219 -5.172920 -12.075156
v 8.882741 -3.556114 -12.075156
v 9.395218 -1.810781 -12.075156
v 9.568125 0.000000 12.075156
v 9.395216 1.810780 12.075156
v 8.882740 3.556113 12.075156
v 8.049219 5.172919 12.075156
v 6.924778 6.602762 12.075156
v 5.550057 7.793964 12.075156
v 3.974743 8.703472 12.075156
v 2.255772 9.298414 12.075156
v 0.455270 9.557287 12.075156
v -1.361685 9.470736 12.075156
v -3.129426 9.041886 12.075156
v -4.784062 8.286240 12.075156
v -6.265789 7.231107 12.075156
v -7.521054 5.914623 12.075156
v -8.504488 4.384369 12.075156
v -9.180548 2.695653 12.075156
v -9.524799 0.909509 12.075156
v -9.524799 -0.909507 12.075156
v -9.180549 -2.695651 12.075156
v -8.504489 -4.384367 12.075156
v -7.521054 -5.914621 12.075156
v -6.265790 -7.231105 12.075156
v -4.784063 -8.286239 12.075156
v -3.129428 -9.041885 12.075156
v -1.361687 -9.470735 12.075156
v 0.455269 -9.557287 12.075156
v 2.255770 -9.298415 12.075156
v 3.974742 -8.703473 12.075156
v 5.550056 -7.793965 12.075156
v 6.924778 -6.602763 12.075156
v 8.049219 -5.172920 12.075156
v 8.882741 -3.556114 12.075156
v 9.395218 -1.810781 12.075156
v 9.668125 0.000000 12.075156
v 9.493409 1.829705 12.075156
v 8.975576 3.593279 12.075156
v 8.133344 5.226983 12.075156
v 6.997151 6.671770 12.075156
v 5.608062 7.875422 12.075156
v 4.016284 8.794436 12.075156
v 2.279347 9.395596 12.075156
v 0.460028 9.657174 12.075156
v -1.375918 9.569717 12.075156
v -3.162134 9.136386 12.075156
v -4.834063 8.372841 12.075156
v -6.331275 7.306681 12.075156
v -7.599659 5.976438 12.075156
v -8.593371 4.430191 12.075156
v -9.276497 2.723826 12.075156
v -9.624347 0.919014 12.075156
v -9.624347 -0.919013 12.075156
v -9.276498 -2.723825 12.075156
v -8.593372 -4.430191 12.075156
v -7.599660 -5.976438 12.075156
v -6.331276 -7.306681 12.075156
v -4.834064 -8.372842 12.075156
v -3.162135 -9.136386 12.075156
v -1.375918 -9.569717 12.075156
v 0.460027 -9.657174 12.075156
v 2.279346 -9.395596 12.075156
v 4.016284 -8.794436 12.075156
v 5.608063 -7.875423 12.075156
v 6.997151 -6.671771 12.075156
v 8.133345 -5.226984 12.075156
v 8.975577 -3.593280 12.075156
v 9.493410 -1.829705 12.075156
v 9.668125 0.000000 -12.075156
v 9.493409 1.829705 -12.075156
v 8.975576 3.593279 -12.075156
v 8.133344 5.226983 -12.075156
v 6.997151 6.671770 -12.075156
v 5.608062 7.875422 -12.075156
v 4.016284 8.794436 -12.075156
v 2.279347 9.395596 -12.075156
v 0.460028 9.657174 -12.075156
v -1.375918 9.569717 -12.075156
v -3.162134 9.136386 -12.075156
v -4.834063 8.372841 -12.075156
v -6.331275 7.306681 -12.075156
v -7.599659 5.976438 -12.075156
v -8.593371 4.430191 -12.075156
v -9.276497 2.723826 -12.075156
v -9.624347 0.919014 -12.075156
v -9.624347 -0.919013 -12.075156
v -9.276498 -2.723825 -12.075156
v -8.593372 -4.430191 -12.075156
v -7.599660 -5.976438 -12.075156
v -6.331276 -7.306681 -12.075156
v -4.834064 -8.372842 -12.075156
v -3.162135 -9.136386 -12.075156
v -1.375918 -9.569717 -12.075156
v 0.460027 -9.657174 -12.075156
v 2.279346 -9.395596 -12.075156
v 4.016284 -8.794436 -12.075156
v 5.608063 -7.875423 -12.075156
v 6.997151 -6.671771 -12.075156
v 8.133345 -5.226984 -12.075156
v 8.975577 -3.593280 -12.075156
v 9.493410 -1.829705 -12.075156
vt 0.000000 1.000000
vt 0.030303 1.000000
vt 0.060606 1.000000
vt 0.090909 1.000000
vt 0.121212 1.000000
vt 0.151515 1.000000
vt 0.181818 1.000000
vt 0.212121 1.000000
vt 0.242424 1.000000
vt 0.272727 1.000000
vt 0.303030 1.000000
vt 0.333333 1.000000
vt 0.363636 1.000000
vt 0.393939 1.000000
vt 0.424242 1.000000
vt 0.454545 1.000000
vt 0.484848 1.000000
vt 0.515152 1.000000
vt 0.545455 1.000000
vt 0.575758 1.000000
vt 0.606061 1.000000
vt 0.636364 1.000000
vt 0.666667 1.000000
vt 0.696970 1.000000
vt 0.727273 1.000000
vt 0.757576 1.000000
vt 0.787879 1.000000
vt 0.818182 1.000000
vt 0.848485 1.000000
vt 0.878788 1.000000
vt 0.909091 1.000000
vt 0.939394 1.000000
vt 0.969697 1.000000
vt 1.000000 1.000000
vt 0.000000 0.750000
vt 0.030303 0.750000
vt 0.060606 0.750000
vt 0.090909 0.750000
vt 0.121212 0.750000
vt 0.151515 0.750000
vt 0.181818 0.750000
vt 0.212121 0.750000
vt 0.242424 0.750000
vt 0.272727 0.750000
vt 0.303030 0.750000
vt 0.333333 0.750000
vt 0.363636 0.750000
vt 0.393939 0.750000
vt 0.424242 0.750000
vt 0.454545 0.750000
vt 0.484848 0.750000
vt 0.515152 0.750000
vt 0.545455 0.750000
vt 0.575758 0.750000
vt 0.606061 0.750000
vt 0.636364 0.750000
vt 0.666667 0.750000
vt 0.696970 0.750000
vt 0.727273 0.750000
vt 0.757576 0.750000
vt 0.787879 0.750000
vt 0.818182 0.750000
vt 0.848485 0.750000
vt 0.878788 0.750000
vt 0.909091 0.750000
vt 0.939394 0.750000
vt 0.969697 0.750000
vt 1.000000 0.750000
vt 0.000000 0.500000
vt 0.030303 0.500000
vt 0.060606 0.500000
vt 0.090909 0.500000
vt 0.121212 0.500000
vt 0.151515 0.500000
vt 0.181818 0.500000
vt 0.212121 0.500000
vt 0.242424 0.500000
vt 0.272727 0.500000
vt 0.303030 0.500000
vt 0.333333 0.500000
vt 0.363636 0.500000
vt 0.393939 0.500000
vt 0.424242 0.500000
vt 0.454545 0.500000
vt 0.484848 0.500000
vt 0.515152 0.500000
vt 0.545455 0.500000
vt 0.575758 0.500000
vt 0.606061 0.500000
vt 0.636364 0.500000
vt 0.666667 0.500000
vt 0.696970 0.500000
vt 0.727273 0.500000
vt 0.757576 0.500000
vt 0.787879 0.500000
vt 0.818182 0.500000
vt 0.848485 0.500000
vt 0.878788 0.500000
vt 0.909091 0.500000
vt 0.939394 0.500000
vt 0.969697 0.500000
vt 1.000000 0.500000
vt 0.000000 0.250000
vt 0.030303 0.250000
vt 0.060606 0.250000
vt 0.090909 0.250000
vt 0.121212 0.250000
vt 0.151515 0.250000
vt 0.181818 0.250000
vt 0.212121 0.250000
vt 0.242424 0.250000
vt 0.272727 0.250000
vt 0.303030 0.250000
vt 0.333333 0.250000
vt 0.363636 0.250000
vt 0.393939 0.250000
vt 0.424242 0.250000
vt 0.454545 0.250000
vt 0.484848 0.250000
vt 0.515152 0.250000
vt 0.545455 0.250000
vt 0.575758 0.250000
vt 0.606061 0.250000
vt 0.636364 0.250000
vt 0.666667 0.250000
vt 0.696970 0.250000
vt 0.727273 0.250000
vt 0.757576 0.250000
vt 0.787879 0.250000
vt 0.818182 0.250000
vt 0.848485 0.250000
vt 0.878788 0.250000
vt 0.909091 0.250000
vt 0.939394 0.250000
vt 0.969697 0.250000
vt 1.000000 0.250000
vt 0.000000 0.000000
vt 0.030303 0.000000
vt 0.060606 0.000000
vt 0.090909 0.000000
vt 0.121212 0.000000
vt 0.151515 0.000000
vt 0.181818 0.000000
vt 0.212121 0.000000
vt 0.242424 0.000000
vt 0.272727 0.000000
vt 0.303030 0.000000
vt 0.333333 0.000000
vt 0.363636 0.000000
vt 0.393939 0.000000
vt 0.424242 0.000000
vt 0.454545 0.000000
vt 0.484848 0.000000
vt 0.515152 0.000000
vt 0.545455 0.000000
vt 0.575758 0.000000
vt 0.606061 0.000000
vt 0.636364 0.000000
vt 0.666667 0.000000
vt 0.696970 0.000000
vt 0.727273 0.000000
vt 0.757576 0.000000
vt 0.787879 0.000000
vt 0.818182 0.000000
vt 0.848485 0.000000
vt 0.878788 0.000000
vt 0.909091 0.000000
vt 0.939394 0.000000
vt 0.969697 0.000000
vt 1.000000 0.000000
vn -0.981929 -0.189251 0.000000
vn -1.000000 -0.000001 0.000000
vn -1.000000 -0.000001 0.000000
vn -0.981929 -0.189251 0.000000
vn -0.928368 -0.371662 0.000000
vn -0.928368 -0.371662 0.000000
vn -0.841254 -0.540641 0.000000
vn -0.841254 -0.540641 0.000000
vn -0.723734 -0.690079 0.000000
vn -0.723734 -0.690079 0.000000
vn -0.580057 -0.814576 0.000000
vn -0.580057 -0.814576 0.000000
vn -0.415415 -0.909632 0.000000
vn -0.415415 -0.909632 0.000000
vn -0.235759 -0.971812 0.000000
vn -0.235759 -0.971812 0.000000
vn -0.047582 -0.998867 0.000000
vn -0.047582 -0.998867 0.000000
vn 0.142315 -0.989821 0.000000
vn 0.142315 -0.989821 0.000000
vn 0.327068 -0.945001 0.000000
vn 0.327068 -0.945001 0.000000
vn 0.500000 -0.866025 0.000000
vn 0.500000 -0.866025 0.000000
vn 0.654861 -0.755750 0.000000
vn 0.654861 -0.755750 0.000000
vn 0.786053 -0.618159 0.000000
vn 0.786053 -0.618159 0.000000
vn 0.888836 -0.458226 0.000000
vn 0.888836 -0.458226 0.000000
vn 0.959493 -0.281733 0.000000
vn 0.959493 -0.281733 0.000000
vn 0.995472 -0.095056 0.000000
vn 0.995472 -0.095056 0.000000
vn 0.995472 0.095056 -0.000000
vn 0.995472 0.095056 -0.000000
vn 0.959493 0.281732 -0.000000
vn 0.959493 0.281732 -0.000000
vn 0.888836 0.458227 -0.000000
vn 0.888836 0.458227 -0.000000
vn 0.786053 0.618159 -0.000000
vn 0.786053 0.618159 -0.000000
vn 0.654861 0.755749 -0.000000
vn 0.654861 0.755749 -0.000000
vn 0.500000 0.866025 -0.000000
vn 0.500000 0.866025 -0.000000
vn 0.327068 0.945001 -0.000000
vn 0.327068 0.945001 -0.000000
vn 0.142315 0.989821 -0.000000
vn 0.142315 0.989821 -0.000000
vn -0.047582 0.998867 -0.000000
vn -0.047582 0.998867 -0.000000
vn -0.235759 0.971812 -0.000000
vn -0.235759 0.971812 -0.000000
vn -0.415415 0.909632 -0.000000
vn -0.415415 0.909632 -0.000000
vn -0.580057 0.814576 -0.000000
vn -0.580057 0.814576 -0.000000
vn -0.723734 0.690079 -0.000000
vn -0.723734 0.690079 -0.000000
vn -0.841253 0.540641 -0.000000
vn -0.841253 0.540641 -0.000000
vn -0.928368 0.371663 -0.000000
vn -0.928368 0.371663 -0.000000
vn -0.981929 0.189251 0.000000
vn -0.981929 0.189251 0.000000
vn 0.000000 0.000000 1.000000
vn 0.000000 0.000001 1.000000
vn 0.000000 0.000001 1.000000
vn 0.000000 0.000000 1.000000
vn 0.000000 -0.000002 1.000000
vn 0.000000 -0.000002 1.000000
vn 0.000000 -0.000000 1.000000
vn 0.000000 -0.000000 1.000000
vn 0.000000 0.000003 1.000000
vn 0.000000 0.000003 1.000000
vn 0.000000 0.000003 1.000000
vn 0.000000 0.000003 1.000000
vn 0.000000 0.000004 1.000000
vn 0.000000 0.000004 1.000000
vn 0.000000 -0.000001 1.000000
vn 0.000000 -0.000001 1.000000
vn 0.000000 -0.000002 1.000000
vn 0.000000 -0.000002 1.000000
vn 0.000000 0.000001 1.000000
vn 0.000000 0.000001 1.000000
vn 0.000000 -0.000005 1.000000
vn 0.000000 -0.000005 1.000000
vn 0.000000 -0.000002 1.000000
vn 0.000000 -0.000002 1.000000
vn 0.000000 0.000001 1.000000
vn 0.000000 0.000001 1.000000
vn 0.000000 -0.000002 1.000000
vn 0.000000 -0.000002 1.000000
vn 0.000000 -0.000001 1.000000
vn 0.000000 -0.000001 1.000000
vn 0.000000 0.000000 1.000000
vn 0.000000 0.000000 1.000000
vn 0.000000 0.000000 1.000000
vn 0.000000 0.000000 1.000000
vn 0.000000 0.000000 1.000000
vn 0.000000 0.000000 1.000000
vn 0.000000 -0.000001 1.000000
vn 0.000000 -0.000001 1.000000
vn 0.000000 -0.000004 1.000000
vn 0.000000 -0.000004 1.000000
vn 0.000000 -0.000001 1.000000
vn 0.000000 -0.000001 1.000000
vn 0.000000 0.000003 1.000000
vn 0.000000 0.000003 1.000000
vn 0.000000 0.000005 1.000000
vn 0.000000 0.000005 1.000000
vn 0.000000 0.000001 1.000000
vn 0.000000 0.000001 1.000000
vn 0.000000 -0.000003 1.000000
vn 0.000000 -0.000003 1.000000
vn 0.000000 0.000000 1.000000
vn 0.000000 0.000000 1.000000
vn 0.000000 0.000001 1.000000
vn 0.000000 0.000001 1.000000
vn 0.000000 0.000002 1.000000
vn 0.000000 0.000002 1.000000
vn 0.000000 0.000000 1.000000
vn 0.000000 0.000000 1.000000
vn 0.000000 -0.000000 1.000000
vn 0.000000 -0.000000 1.000000
vn 0.000000 0.000003 1.000000
vn 0.000000 0.000003 1.000000
vn 0.000000 0.000002 1.000000
vn 0.000000 0.000002 1.000000
vn 0.000000 -0.000001 1.000000
vn 0.000000 -0.000001 1.000000
vn 0.981929 0.189251 -0.000000
vn 1.000000 0.000000 -0.000000
vn 1.000000 0.000000 -0.000000
vn 0.981929 0.189251 -0.000000
vn 0.928368 0.371663 -0.000000
vn 0.928368 0.371663 -0.000000
vn 0.841254 0.540641 -0.000000
vn 0.841254 0.540641 -0.000000
vn 0.723734 0.690079 -0.000000
vn 0.723734 0.690079 -0.000000
vn 0.580057 0.814576 -0.000000
vn 0.580057 0.814576 -0.000000
vn 0.415415 0.909632 -0.000000
vn 0.415415 0.909632 -0.000000
vn 0.235759 0.971812 -0.000000
vn 0.235759 0.971812 -0.000000
vn 0.047582 0.998867 -0.000000
vn 0.047582 0.998867 -0.000000
vn -0.142315 0.989822 -0.000000
vn -0.142315 0.989822 -0.000000
vn -0.327068 0.945001 -0.000000
vn -0.327068 0.945001 -0.000000
vn -0.500000 0.866025 -0.000000
vn -0.500000 0.866025 -0.000000
vn -0.654861 0.755750 -0.000000
vn -0.654861 0.755750 -0.000000
vn -0.786053 0.618159 -0.000000
vn -0.786053 0.618159 -0.000000
vn -0.888836 0.458227 -0.000000
vn -0.888836 0.458227 -0.000000
vn -0.959493 0.281733 -0.000000
vn -0.959493 0.281733 -0.000000
vn -0.995472 0.095056 -0.000000
vn -0.995472 0.095056 -0.000000
vn -0.995472 -0.095056 0.000000
vn -0.995472 -0.095056 0.000000
vn -0.959493 -0.281732 0.000000
vn -0.959493 -0.281732 0.000000
vn -0.888836 -0.458226 0.000000
vn -0.888836 -0.458226 0.000000
vn -0.786053 -0.618159 0.000000
vn -0.786053 -0.618159 0.000000
vn -0.654861 -0.755750 0.000000
vn -0.654861 -0.755750 0.000000
vn -0.500000 -0.866025 0.000000
vn -0.500000 -0.866025 0.000000
vn -0.327068 -0.945001 0.000000
vn -0.327068 -0.945001 0.000000
vn -0.142315 -0.989822 0.000000
vn -0.142315 -0.989822 0.000000
vn 0.047582 -0.998867 0.000000
vn 0.047582 -0.998867 0.000000
vn 0.235759 -0.971812 0.000000
vn 0.235759 -0.971812 0.000000
vn 0.415415 -0.909632 0.000000
vn 0.415415 -0.909632 0.000000
vn 0.580057 -0.814576 0.000000
vn 0.580057 -0.814576 0.000000
vn 0.723734 -0.690079 0.000000
vn 0.723734 -0.690079 0.000000
vn 0.841254 -0.540641 0.000000
vn 0.841254 -0.540641 0.000000
vn 0.928368 -0.371662 0.000000
vn 0.928368 -0.371662 0.000000
vn 0.981929 -0.189251 -0.000000
vn 0.981929 -0.189251 -0.000000
vn 0.000000 -0.000001 -1.000000
vn 0.000000 0.000001 -1.000000
vn 0.000000 0.000001 -1.000000
vn 0.000000 -0.000001 -1.000000
vn 0.000000 -0.000003 -1.000000
vn 0.000000 -0.000003 -1.000000
vn 0.000000 -0.000000 -1.000000
vn 0.000000 -0.000000 -1.000000
vn 0.000000 0.000003 -1.000000
vn 0.000000 0.000003 -1.000000
vn 0.000000 0.000003 -1.000000
vn 0.000000 0.000003 -1.000000
vn 0.000000 0.000004 -1.000000
vn 0.000000 0.000004 -1.000000
vn 0.000000 -0.000001 -1.000000
vn 0.000000 -0.000001 -1.000000
vn 0.000000 -0.000002 -1.000000
vn 0.000000 -0.000002 -1.000000
vn 0.000000 0.000001 -1.000000
vn 0.000000 0.000001 -1.000000
vn 0.000000 -0.000005 -1.000000
vn 0.000000 -0.000005 -1.000000
vn 0.000000 -0.000002 -1.000000
vn 0.000000 -0.000002 -1.000000
vn 0.000000 0.000004 -1.000000
vn 0.000000 0.000004 -1.000000
vn 0.000000 0.000001 -1.000000
vn 0.000000 0.000001 -1.000000
vn 0.000000 -0.000002 -1.000000
vn 0.000000 -0.000002 -1.000000
vn 0.000000 -0.000001 -1.000000
vn 0.000000 -0.000001 -1.000000
vn 0.000000 -0.000000 -1.000000
vn 0.000000 -0.000000 -1.000000
vn 0.000000 -0.000000 -1.000000
vn 0.000000 -0.000000 -1.000000
vn 0.000000 0.000000 -1.000000
vn 0.000000 0.000000 -1.000000
vn 0.000000 -0.000003 -1.000000
vn 0.000000 -0.000003 -1.000000
vn 0.000000 -0.000004 -1.000000
vn 0.000000 -0.000004 -1.000000
vn 0.000000 0.000000 -1.000000
vn 0.000000 0.000000 -1.000000
vn 0.000000 0.000005 -1.000000
vn 0.000000 0.000005 -1.000000
vn 0.000000 0.000001 -1.000000
vn 0.000000 0.000001 -1.000000
vn 0.000000 -0.000003 -1.000000
vn 0.000000 -0.000003 -1.000000
vn 0.000000 0.000000 -1.000000
vn 0.000000 0.000000 -1.000000
vn 0.000000 0.000001 -1.000000
vn 0.000000 0.000001 -1.000000
vn 0.000000 0.000002 -1.000000
vn 0.000000 0.000002 -1.000000
vn 0.000000 0.000003 -1.000000
vn 0.000000 0.000003 -1.000000
vn 0.000000 0.000002 -1.000000
vn 0.000000 0.000002 -1.000000
vn 0.000000 0.000003 -1.000000
vn 0.000000 0.000003 -1.000000
vn 0.000000 0.000002 -1.000000
vn 0.000000 0.000002 -1.000000
vn 0.000000 -0.000001 -1.000000
vn 0.000000 -0.000001 -1.000000
f 2/2/1 1/1/2 34/35/3 35/36/4
f 3/3/5 2/2/1 35/36/4 36/37/6
f 4/4/7 3/3/5 36/37/6 37/38/8
f 5/5/9 4/4/7 37/38/8 38/39/10
f 6/6/11 5/5/9 38/39/10 39/40/12
f 7/7/13 6/6/11 39/40/12 40/41/14
f 8/8/15 7/7/13 40/41/14 41/42/16
f 9/9/17 8/8/15 41/42/16 42/43/18
f 10/10/19 9/9/17 42/43/18 43/44/20
f 11/11/21 10/10/19 43/44/20 44/45/22
f 12/12/23 11/11/21 44/45/22 45/46/24
f 13/13/25 12/12/23 45/46/24 46/47/26
f 14/14/27 13/13/25 46/47/26 47/48/28
f 15/15/29 14/14/27 47/48/28 48/49/30
f 16/16/31 15/15/29 48/49/30 49/50/32
f 17/17/33 16/16/31 49/50/32 50/51/34
f 18/18/35 17/17/33 50/51/34 51/52/36
f 19/19/37 18/18/35 51/52/36 52/53/38
f 20/20/39 19/19/37 52/53/38 53/54/40
f 21/21/41 20/20/39 53/54/40 54/55/42
f 22/22/43 21/21/41 54/55/42 55/56/44
f 23/23/45 22/22/43 55/56/44 56/57/46
f 24/24/47 23/23/45 56/57/46 57/58/48
f 25/25/49 24/24/47 57/58/48 58/59/50
f 26/26/51 25/25/49 58/59/50 59/60/52
f 27/27/53 26/26/51 59/60/52 60/61/54
f 28/28/55 27/27/53 60/61/54 61/62/56
f 29/29/57 28/28/55 61/62/56 62/63/58
f 30/30/59 29/29/57 62/63/58 63/64/60
f 31/31/61 30/30/59 63/64/60 64/65/62
f 32/32/63 31/31/61 64/65/62 65/66/64
f 33/33/65 32/32/63 65/66/64 66/67/66
f 1/34/2 33/33/65 66/67/66 34/68/3
f 35/36/67 34/35/68 67/69/69 68/70/70
f 36/37/71 35/36/67 68/70/70 69/71/72
f 37/38/73 36/37/71 69/71/72 70/72/74
f 38/39/75 37/38/73 70/72/74 71/73/76
f 39/40/77 38/39/75 71/73/76 72/74/78
f 40/41/79 39/40/77 72/74/78 73/75/80
f 41/42/81 40/41/79 73/75/80 74/76/82
f 42/43/83 41/42/81 74/76/82 75/77/84
f 43/44/85 42/43/83 75/77/84 76/78/86
f 44/45/87 43/44/85 76/78/86 77/79/88
f 45/46/89 44/45/87 77/79/88 78/80/90
f 46/47/91 45/46/89 78/80/90 79/81/92
f 47/48/93 46/47/91 79/81/92 80/82/94
f 48/49/95 47/48/93 80/82/94 81/83/96
f 49/50/97 48/49/95 81/83/96 82/84/98
f 50/51/99 49/50/97 82/84/98 83/85/100
f 51/52/101 50/51/99 83/85/100 84/86/102
f 52/53/103 51/52/101 84/86/102 85/87/104
f 53/54/105 52/53/103 85/87/104 86/88/106
f 54/55/107 53/54/105 86/88/106 87/89/108
f 55/56/109 54/55/107 87/89/108 88/90/110
f 56/57/111 55/56/109 88/90/110 89/91/112
f 57/58/113 56/57/111 89/91/112 90/92/114
f 58/59/115 57/58/113 90/92/114 91/93/116
f 59/60/117 58/59/115 91/93/116 92/94/118
f 60/61/119 59/60/117 92/94/118 93/95/120
f 61/62/121 60/61/119 93/95/120 94/96/122
f 62/63/123 61/62/121 94/96/122 95/97/124
f 63/64/125 62/63/123 95/97/124 96/98/126
f 64/65/127 63/64/125 96/98/126 97/99/128
f 65/66/129 64/65/127 97/99/128 98/100/130
f 66/67/131 65/66/129 98/100/130 99/101/132
f 34/68/68 66/67/131 99/101/132 67/102/69
f 68/70/133 67/69/134 100/103/135 101/104/136
f 69/71/137 68/70/133 101/104/136 102/105/138
f 70/72/139 69/71/137 102/105/138 103/106/140
f 71/73/141 70/72/139 103/106/140 104/107/142
f 72/74/143 71/73/141 104/107/142 105/108/144
f 73/75/145 72/74/143 105/108/144 106/109/146
f 74/76/147 73/75/145 106/109/146 107/110/148
f 75/77/149 74/76/147 107/110/148 108/111/150
f 76/78/151 75/77/149 108/111/150 109/112/152
f 77/79/153 76/78/151 109/112/152 110/113/154
f 78/80/155 77/79/153 110/113/154 111/114/156
f 79/81/157 78/80/155 111/114/156 112/115/158
f 80/82/159 79/81/157 112/115/158 113/116/160
f 81/83/161 80/82/159 113/116/160 114/117/162
f 82/84/163 81/83/161 114/117/162 115/118/164
f 83/85/165 82/84/163 115/118/164 116/119/166
f 84/86/167 83/85/165 116/119/166 117/120/168
f 85/87/169 84/86/167 117/120/168 118/121/170
f 86/88/171 85/87/169 118/121/170 119/122/172
f 87/89/173 86/88/171 119/122/172 120/123/174
f 88/90/175 87/89/173 120/123/174 121/124/176
f 89/91/177 88/90/175 121/124/176 122/125/178
f 90/92/179 89/91/177 122/125/178 123/126/180
f 91/93/181 90/92/179 123/126/180 124/127/182
f 92/94/183 91/93/181 124/127/182 125/128/184
f 93/95/185 92/94/183 125/128/184 126/129/186
f 94/96/187 93/95/185 126/129/186 127/130/188
f 95/97/189 94/96/187 127/130/188 128/131/190
f 96/98/191 95/97/189 128/131/190 129/132/192
f 97/99/193 96/98/191 129/132/192 130/133/194
f 98/100/195 97/99/193 130/133/194 131/134/196
f 99/101/197 98/100/195 131/134/196 132/135/198
f 67/102/134 99/101/197 132/135/198 100/136/135
f 101/104/199 100/103/200 1/137/201 2/138/202
f 102/105/203 101/104/199 2/138/202 3/139/204
f 103/106/205 102/105/203 3/139/204 4/140/206
f 104/107/207 103/106/205 4/140/206 5/141/208
f 105/108/209 104/107/207 5/141/208 6/142/210
f 106/109/211 105/108/209 6/142/210 7/143/212
f 107/110/213 106/109/211 7/143/212 8/144/214
f 108/111/215 107/110/213 8/144/214 9/145/216
f 109/112/217 108/111/215 9/145/216 10/146/218
f 110/113/219 109/112/217 10/146/218 11/147/220
f 111/114/221 110/113/219 11/147/220 12/148/222
f 112/115/223 111/114/221 12/148/222 13/149/224
f 113/116/225 112/115/223 13/149/224 14/150/226
f 114/117/227 113/116/225 14/150/226 15/151/228
f 115/118/229 114/117/227 15/151/228 16/152/230
f 116/119/231 115/118/229 16/152/230 17/153/232
f 117/120/233 116/119/231 17/153/232 18/154/234
f 118/121/235 117/120/233 18/154/234 19/155/236
f 119/122/237 118/121/235 19/155/236 20/156/238
f 120/123/239 119/122/237 20/156/238 21/157/240
f 121/124/241 120/123/239 21/157/240 22/158/242
f 122/125/243 121/124/241 22/158/242 23/159/244
f 123/126/245 122/125/243 23/159/244 24/160/246
f 124/127/247 123/126/245 24/160/246 25/161/248
f 125/128/249 124/127/247 25/161/248 26/162/250
f 126/129/251 125/128/249 26/162/250 27/163/252
f 127/130/253 126/129/251 27/163/252 28/164/254
f 128/131/255 127/130/253 28/164/254 29/165/256
f 129/132/257 128/131/255 29/165/256 30/166/258
f 130/133/259 129/132/257 30/166/258 31/167/260
f 131/134/261 130/133/259 31/167/260 32/168/262
f 132/135/263 131/134/261 32/168/262 33/169/264
f 100/136/200 132/135/263 33/169/264 1/170/201
